<svg width="60" height="16" viewBox="0 0 60 16" fill="none" xmlns="http://www.w3.org/2000/svg">
<path d="M37.8125 6.45374L32.4142 5.66921L30 0.777649L27.5858 5.66921L22.1875 6.45374L26.0938 10.2614L25.1716 15.6378L30 13.0994L34.8284 15.6378L33.9062 10.2614L37.8125 6.45374Z" fill="#9D519B"/>
<path d="M15.9375 6.45374L10.5392 5.66921L8.125 0.777649L5.71078 5.66921L0.3125 6.45374L4.21875 10.2614L3.29656 15.6378L8.125 13.0994L12.9534 15.6378L12.0312 10.2614L15.9375 6.45374Z" fill="#9D519B"/>
<path d="M59.6875 6.45374L54.2892 5.66921L51.875 0.777649L49.4608 5.66921L44.0625 6.45374L47.9688 10.2614L47.0466 15.6378L51.875 13.0994L56.7034 15.6378L55.7812 10.2614L59.6875 6.45374Z" fill="#9D519B"/>
</svg>
